<?xml version="1.0" standalone="no"?><!DOCTYPE svg PUBLIC "-//W3C//DTD SVG 1.1//EN" "http://www.w3.org/Graphics/SVG/1.1/DTD/svg11.dtd"><svg t="1584325752064" class="icon" viewBox="0 0 1024 1024" version="1.1" xmlns="http://www.w3.org/2000/svg" p-id="6106" xmlns:xlink="http://www.w3.org/1999/xlink" width="200" height="200"><defs><style type="text/css"></style></defs><path d="M853.248 154.24l-682.496 0c-37.696 0-68.224 30.56-68.224 68.256l0 443.776c0 37.696 30.56 68.256 68.224 68.256l478.976 0 135.232 135.232 0-135.232 68.288 0c37.696 0 68.256-30.56 68.256-68.256l0-443.776c0-37.696-30.56-68.256-68.256-68.256zM887.36 666.272c0 18.816-15.328 34.112-34.112 34.112l-102.4 0 0 86.976-86.976-86.976-493.12 0c-18.816 0-34.112-15.296-34.112-34.112l0-443.776c0-18.816 15.328-34.112 34.112-34.112l682.496 0c18.816 0 34.112 15.296 34.112 34.112l0 443.776z" p-id="6107" fill="#6eb54e"></path><path d="M512 410.368c-18.848 0-34.112 15.296-34.112 34.112s15.264 34.112 34.112 34.112 34.112-15.264 34.112-34.112c0-18.816-15.264-34.112-34.112-34.112z" p-id="6108" fill="#6eb54e"></path><path d="M648.48 410.368c-18.848 0-34.112 15.296-34.112 34.112s15.264 34.112 34.112 34.112 34.112-15.264 34.112-34.112c0-18.816-15.264-34.112-34.112-34.112z" p-id="6109" fill="#6eb54e"></path><path d="M378.72 410.368c-18.848 0-34.112 15.296-34.112 34.112s15.264 34.112 34.112 34.112 34.112-15.264 34.112-34.112c0-18.816-15.264-34.112-34.112-34.112z" p-id="6110" fill="#6eb54e"></path></svg>