<?xml version="1.0" standalone="no"?><!DOCTYPE svg PUBLIC "-//W3C//DTD SVG 1.1//EN" "http://www.w3.org/Graphics/SVG/1.1/DTD/svg11.dtd"><svg t="1584325688351" class="icon" viewBox="0 0 1024 1024" version="1.1" xmlns="http://www.w3.org/2000/svg" p-id="4383" xmlns:xlink="http://www.w3.org/1999/xlink" width="200" height="200"><defs><style type="text/css"></style></defs><path d="M860.985276 259.833817c-89.835028-89.835028-236.651838-89.194438-327.274812 1.430582l-18.759249 18.760273-23.267936-23.267936c-43.87016-43.87016-102.099353-68.172659-163.961282-68.430532-0.331551-0.001023-0.661056-0.002047-0.99363-0.002047-61.47819 0-119.090329 23.771403-162.319899 67.001997-43.519166 43.519166-67.294662 101.588723-66.946738 163.512051 0.347924 61.857836 24.721031 120.107495 68.6311 164.017564l340.91139 340.910367c1.811252 1.811252 4.184299 2.715855 6.557346 2.715855 0.608867 0 1.216711-0.061398 1.815345-0.180102 0.598634 0.118704 1.207501 0.180102 1.815345 0.180102 2.373047 0 4.747117-0.905626 6.557346-2.715855l335.550289-336.402703C950.064081 496.598218 950.820304 349.668845 860.985276 259.833817z" p-id="4384" fill="#d81e06"></path></svg>