<?xml version="1.0" standalone="no"?><!DOCTYPE svg PUBLIC "-//W3C//DTD SVG 1.1//EN" "http://www.w3.org/Graphics/SVG/1.1/DTD/svg11.dtd"><svg t="1584325651827" class="icon" viewBox="0 0 1024 1024" version="1.1" xmlns="http://www.w3.org/2000/svg" p-id="4249" xmlns:xlink="http://www.w3.org/1999/xlink" width="200" height="200"><defs><style type="text/css"></style></defs><path d="M736.4465 150.3898c49.3548 0 95.7624 19.1918 130.6491 54.0396 34.8877 34.7914 54.0795 81.0414 54.0795 130.2395 0 49.2175-19.1918 95.4675-54.5874 130.7853L512.1659 832.1382 157.2526 464.9277c-34.8672-34.7904-54.059-81.0414-54.059-130.2589 0-49.1981 19.1918-95.4481 54.059-130.2579 34.8877-34.8293 81.2954-54.0211 130.6501-54.0211 48.7485 0 94.59 18.7218 129.321 52.7319l64.1331 77.6827c7.595 9.1945 18.8989 14.5244 30.8275 14.5244l0 0c11.9286 0 23.252-5.3299 30.847-14.5244l64.0942-77.6827C641.8575 169.1126 687.7174 150.3898 736.4465 150.3898M736.4465 110.4077c-57.4945 0-114.9911 21.9044-158.8787 65.7142l-65.3834 79.2259-65.4029-79.2259c-43.8682-43.8098-101.3832-65.7142-158.8787-65.7142-57.516 0-115.0116 21.9044-158.8992 65.7142-87.7373 87.5612-87.7373 229.5542 0 317.1154l359.1475 371.6035c6.9315 7.2428 14.7005 9.7423 24.0333 9.7423 9.1945 0 17.6097-3.0853 23.7015-9.4505l359.4609-371.8953c87.7558-87.5612 87.7558-229.5542 0-317.1154C851.4775 132.3121 793.9615 110.4077 736.4465 110.4077L736.4465 110.4077z" p-id="4250"></path></svg>